HIERARCHY
ROOT Hips
{
	OFFSET -0.001795 -0.223333 0.028219
	CHANNELS 6 Xposition Yposition Zposition Zrotation Yrotation Xrotation 
	JOINT LeftUpLeg
	{
		OFFSET 0.069520 -0.091406 -0.006815
		CHANNELS 3 Zrotation Yrotation Xrotation
		JOINT LeftLeg
		{
			OFFSET 0.034277 -0.375199 -0.004496
			CHANNELS 3 Zrotation Yrotation Xrotation
			JOINT LeftFoot
			{
				OFFSET -0.013596 -0.397961 -0.043693
				CHANNELS 3 Zrotation Yrotation Xrotation
				JOINT LeftToe
				{
					OFFSET 0.026358 -0.055791 0.119288
					CHANNELS 3 Zrotation Yrotation Xrotation
					End Site
					{
						OFFSET 0.000000 0.000000 0.000000
					}
				}
			}
		}
	}
	JOINT RightUpLeg
	{
		OFFSET -0.067670 -0.090522 -0.004320
		CHANNELS 3 Zrotation Yrotation Xrotation
		JOINT RightLeg
		{
			OFFSET -0.038290 -0.382569 -0.008850
			CHANNELS 3 Zrotation Yrotation Xrotation
			JOINT RightFoot
			{
				OFFSET 0.015774 -0.398415 -0.042312
				CHANNELS 3 Zrotation Yrotation Xrotation
				JOINT RightToe
				{
					OFFSET -0.025372 -0.048144 0.123348
					CHANNELS 3 Zrotation Yrotation Xrotation
					End Site
					{
						OFFSET 0.000000 0.000000 0.000000
					}
				}
			}
		}
	}
	JOINT Spine
	{
		OFFSET -0.002533 0.108963 -0.026696
		CHANNELS 3 Zrotation Yrotation Xrotation
		JOINT Spine1
		{
			OFFSET 0.005487 0.135180 0.001092
			CHANNELS 3 Zrotation Yrotation Xrotation
			JOINT Spine2
			{
				OFFSET 0.001457 0.052922 0.025425
				CHANNELS 3 Zrotation Yrotation Xrotation
				JOINT Neck
				{
					OFFSET -0.002778 0.213870 -0.042857
					CHANNELS 3 Zrotation Yrotation Xrotation
					JOINT Head
					{
						OFFSET 0.005152 0.064970 0.051349
						CHANNELS 3 Zrotation Yrotation Xrotation
						End Site
						{
							OFFSET 0.000000 0.000000 0.000000
						}
					}
				}
				JOINT LeftShoulder
				{
					OFFSET 0.078845 0.121749 -0.034090
					CHANNELS 3 Zrotation Yrotation Xrotation
					JOINT LeftArm
					{
						OFFSET 0.090977 0.030469 -0.008868
						CHANNELS 3 Zrotation Yrotation Xrotation
						JOINT LeftForeArm
						{
							OFFSET 0.259612 -0.012772 -0.027456
							CHANNELS 3 Zrotation Yrotation Xrotation
							JOINT LeftHand
							{
								OFFSET 0.249234 0.008986 -0.001171
								CHANNELS 3 Zrotation Yrotation Xrotation
								End Site
								{
									OFFSET 0.000000 0.000000 0.000000
								}
							}
						}
					}
				}
				JOINT RightShoulder
				{
					OFFSET -0.081759 0.118833 -0.038615
					CHANNELS 3 Zrotation Yrotation Xrotation
					JOINT RightArm
					{
						OFFSET -0.096012 0.032551 -0.009143
						CHANNELS 3 Zrotation Yrotation Xrotation
						JOINT RightForeArm
						{
							OFFSET -0.253742 -0.013329 -0.021401
							CHANNELS 3 Zrotation Yrotation Xrotation
							JOINT RightHand
							{
								OFFSET -0.255298 0.007772 -0.005559
								CHANNELS 3 Zrotation Yrotation Xrotation
								End Site
								{
									OFFSET 0.000000 0.000000 0.000000
								}
							}
						}
					}
				}
			}
		}
	}
}
MOTION
Frames: 13
Frame Time: 0.050000
0.000000 0.941648 0.000000 0.338336 17.616401 11.315673 3.051614 -0.840961 -9.538512 -8.655632 0.495616 0.950543 3.657701 10.908203 8.359402 0.000000 0.000000 0.000000 -2.190707 1.053323 -17.666993 -11.720656 2.235302 7.710164 5.850617 9.551046 10.474515 0.000000 0.000000 0.000000 2.722438 -0.632758 6.657404 5.392482 -2.936107 2.101980 -1.966393 -3.804458 2.508149 0.941382 -0.359131 -2.742487 0.000000 0.000000 0.000000 -4.130197 -33.277436 12.345558 -44.800671 -61.755292 19.462479 16.715911 -16.848641 -1.804769 0.000000 0.000000 0.000000 4.199137 28.269117 11.815621 37.606433 47.592469 11.660065 -13.439307 17.624615 -1.158653 0.000000 0.000000 0.000000 
-0.000365 0.943752 0.002200 -0.064787 17.151725 11.656330 2.253606 -0.786429 -8.895600 -6.504960 0.360521 -0.732526 3.698332 11.145473 8.914379 0.000000 0.000000 0.000000 -2.754987 0.978423 -16.936850 -9.923233 1.738953 5.552127 6.209781 9.847630 11.363667 0.000000 0.000000 0.000000 2.061233 -0.354894 3.877743 4.481884 -2.255875 0.595927 -0.819084 -4.310847 4.096170 0.944822 -0.509153 -1.745852 0.000000 0.000000 0.000000 -5.678713 -30.745886 11.629584 -50.047425 -60.767427 21.925951 13.844238 -19.688701 -1.633456 0.000000 0.000000 0.000000 5.552760 24.675101 10.418687 45.393164 45.743904 13.816080 -11.870766 21.054356 -1.156176 0.000000 0.000000 0.000000 
-0.000766 0.943949 0.004876 -0.412776 17.933720 10.274929 2.712021 -0.650340 -7.275257 -6.408277 0.341324 -0.905612 3.347141 10.450072 8.546132 0.000000 0.000000 0.000000 -2.251974 0.961309 -14.928276 -9.868413 1.691159 5.065677 5.841739 9.336093 11.115579 0.000000 0.000000 0.000000 1.867756 -0.259653 2.830239 4.789422 -2.265005 -0.454196 -1.861795 -4.706549 4.467220 0.519253 -0.213007 -1.457671 0.000000 0.000000 0.000000 -5.414794 -27.514370 10.102347 -56.566411 -57.498053 23.411015 11.441002 -25.716995 -1.682282 0.000000 0.000000 0.000000 7.208032 21.765012 9.480639 47.447695 40.820758 12.217768 -7.256503 27.001720 -0.489907 0.000000 0.000000 0.000000 
-0.001190 0.943433 0.007693 -0.553925 18.825827 9.974629 2.524527 -0.600200 -6.672370 -5.481368 0.285948 -1.271598 2.991837 9.748921 8.094813 0.000000 0.000000 0.000000 -2.750824 0.830287 -13.354324 -8.471277 1.350172 3.442480 5.417173 8.723707 10.891418 0.000000 0.000000 0.000000 1.699528 -0.144567 1.125688 4.501200 -2.179241 -0.133233 -1.868771 -5.018781 3.564110 0.410151 -0.117638 -1.523679 0.000000 0.000000 0.000000 -5.341909 -24.563523 8.805914 -63.032169 -53.509303 24.121827 7.751289 -30.897076 -1.104697 0.000000 0.000000 0.000000 6.925732 17.553863 7.515084 51.520087 36.079663 11.428072 -2.425797 29.388468 0.659958 0.000000 0.000000 0.000000 
-0.001669 0.942281 0.011048 -0.710194 20.007083 8.403862 2.773587 -0.475994 -4.972014 -5.224464 0.265878 -1.113981 2.574671 8.731329 7.232710 0.000000 0.000000 0.000000 -2.480038 0.748988 -11.251504 -8.267213 1.337885 3.492994 4.786724 7.943426 10.016524 0.000000 0.000000 0.000000 1.315881 -0.075276 0.358364 4.319766 -1.986245 -0.930896 -2.211855 -6.312794 4.256849 0.582235 -0.214988 -1.955549 0.000000 0.000000 0.000000 -7.761586 -22.349002 8.128787 -61.926811 -47.312821 19.533147 1.507025 -38.633137 0.716330 0.000000 0.000000 0.000000 8.269442 14.264225 6.115930 51.939787 29.139560 8.024237 4.559255 32.404528 2.658989 0.000000 0.000000 0.000000 
-0.002113 0.942163 0.014508 -0.946945 20.316933 7.398241 2.505389 -0.405795 -4.146811 -4.080883 0.222675 -0.429621 2.565165 8.491481 6.714355 0.000000 0.000000 0.000000 -2.407598 0.684355 -9.905280 -7.686871 1.255469 3.376574 4.644852 7.806040 9.715586 0.000000 0.000000 0.000000 1.383185 -0.047941 -0.143863 4.028763 -1.822406 -1.121068 -2.464070 -5.760952 4.190841 0.186424 0.008191 -1.128076 0.000000 0.000000 0.000000 -8.567280 -18.148551 6.202585 -64.614923 -40.715480 16.097026 -6.594714 -44.924978 3.950815 0.000000 0.000000 0.000000 8.656385 10.946766 4.751725 52.496236 22.631140 5.101597 11.142947 33.834326 4.809850 0.000000 0.000000 0.000000 
-0.002299 0.941527 0.017846 -0.916554 21.085581 6.706298 2.691903 -0.363084 -3.396235 -4.127896 0.217780 -0.156885 2.279045 7.840352 6.304251 0.000000 0.000000 0.000000 -2.644243 0.605343 -9.017349 -7.022196 1.199991 3.830381 4.250292 7.293944 9.104139 0.000000 0.000000 0.000000 1.178317 -0.000607 -1.007652 3.689366 -1.567008 -1.822637 -2.794027 -5.516105 4.242215 0.542629 -0.300211 -0.843809 0.000000 0.000000 0.000000 -10.048850 -14.167697 4.319623 -65.464544 -34.068707 11.961768 -15.763635 -48.181818 8.118020 0.000000 0.000000 0.000000 9.272824 6.981663 3.088015 53.742469 16.908091 2.620911 15.410554 33.280184 6.067698 0.000000 0.000000 0.000000 
-0.002243 0.940824 0.020540 -1.173807 21.494573 5.815680 2.894341 -0.329164 -2.709048 -3.823933 0.198513 0.429105 2.254227 7.521023 5.732435 0.000000 0.000000 0.000000 -2.748588 0.529014 -7.875414 -6.177735 1.078245 3.805044 4.076028 7.103162 8.714131 0.000000 0.000000 0.000000 1.504985 0.012597 -1.402130 3.516349 -1.497170 -1.726563 -2.769878 -4.318252 3.314865 1.202881 -1.065262 0.801549 0.000000 0.000000 0.000000 -10.510923 -10.998034 2.668937 -65.579720 -28.515616 8.412437 -25.405111 -50.672559 12.789932 0.000000 0.000000 0.000000 9.399536 3.984289 1.871167 55.121630 12.095233 0.630986 16.872506 31.302899 6.164192 0.000000 0.000000 0.000000 
-0.002017 0.940477 0.022499 -1.096092 21.805267 5.686721 2.784141 -0.320841 -2.659476 -3.633003 0.182815 0.816534 2.170800 7.282775 5.513933 0.000000 0.000000 0.000000 -2.717144 0.492988 -7.235815 -6.269905 1.061769 3.318556 3.913294 6.868399 8.535580 0.000000 0.000000 0.000000 1.569268 0.057311 -2.580468 3.277567 -1.371224 -1.828265 -2.797343 -3.586548 2.914450 1.038847 -1.183530 2.254115 0.000000 0.000000 0.000000 -10.513428 -8.154527 1.295324 -65.831902 -24.402188 5.799475 -31.887489 -50.887646 15.747847 0.000000 0.000000 0.000000 9.882507 1.286151 0.740208 56.017801 8.792232 -0.806800 15.406736 28.742322 5.268322 0.000000 0.000000 0.000000 
-0.001820 0.939880 0.023476 -1.264034 21.960821 5.239086 3.000191 -0.314888 -2.372016 -3.659405 0.180375 1.160891 2.209848 7.165692 5.156678 0.000000 0.000000 0.000000 -2.745734 0.447327 -6.538268 -5.869491 0.985107 3.002564 3.855857 6.822759 8.357944 0.000000 0.000000 0.000000 1.973889 0.089046 -3.480287 2.986975 -1.278272 -1.490180 -2.628269 -2.603255 2.159058 1.663789 -2.024175 3.818661 0.000000 0.000000 0.000000 -10.517021 -6.893880 0.606431 -65.451158 -21.598944 4.020226 -34.600747 -50.509418 16.656269 0.000000 0.000000 0.000000 10.369771 0.012067 0.261397 56.333452 6.551410 -1.772645 13.694792 26.519893 4.433761 0.000000 0.000000 0.000000 
-0.001742 0.939568 0.023478 -1.358661 21.870931 5.034386 3.176383 -0.319822 -2.314458 -3.836067 0.189972 1.419311 2.306688 7.245565 4.998770 0.000000 0.000000 0.000000 -2.422648 0.448806 -6.163626 -6.301235 1.022930 2.637310 3.879880 6.880519 8.330707 0.000000 0.000000 0.000000 2.339820 0.119479 -4.285824 2.930678 -1.286138 -1.222593 -2.445674 -2.376249 1.824493 1.913953 -2.474338 4.952751 0.000000 0.000000 0.000000 -9.993247 -5.367420 0.039068 -65.461957 -19.991023 3.008784 -35.552639 -48.995595 16.497278 0.000000 0.000000 0.000000 10.015124 -1.018359 -0.230171 57.059280 5.336330 -2.267762 12.105345 25.348144 3.855711 0.000000 0.000000 0.000000 
-0.001739 0.939183 0.022791 -1.611749 21.535036 4.704117 3.422270 -0.327787 -2.268395 -3.936877 0.196961 1.811772 2.558216 7.547498 4.762677 0.000000 0.000000 0.000000 -2.378479 0.440462 -5.967652 -6.004334 0.974985 2.553772 4.050854 7.206580 8.317417 0.000000 0.000000 0.000000 2.897452 0.141401 -4.695159 3.139936 -1.399948 -1.100964 -1.907899 -1.952788 1.359921 2.962447 -3.595821 5.849200 0.000000 0.000000 0.000000 -10.165941 -5.078673 -0.125907 -64.597031 -18.622184 2.229656 -34.081370 -46.126852 14.733733 0.000000 0.000000 0.000000 10.176003 -2.282958 -0.824432 57.022887 4.203284 -2.762478 11.081700 25.185548 3.616910 0.000000 0.000000 0.000000 
-0.001715 0.939421 0.021586 -1.601922 21.016912 4.566984 3.271183 -0.316665 -2.280851 -3.872222 0.196126 2.085363 2.783310 7.967821 4.852027 0.000000 0.000000 0.000000 -2.372594 0.421349 -5.620144 -6.172206 0.948969 1.885051 4.324284 7.637363 8.593177 0.000000 0.000000 0.000000 3.397102 0.156620 -4.895771 3.644261 -1.619446 -1.244215 -1.498063 -1.862351 0.919229 4.105529 -4.986511 7.413978 0.000000 0.000000 0.000000 -10.202838 -5.041198 -0.113452 -63.516848 -17.764900 1.805312 -31.945830 -42.079125 12.515702 0.000000 0.000000 0.000000 10.312261 -2.913668 -1.163085 56.594088 3.520511 -3.069834 9.997044 25.532348 3.433555 0.000000 0.000000 0.000000 
